v 1.0 -1.0 -1.0
v 1.0 -1.0 1.0
v -1.0 -1.0 1.0
v -1.0 -1.0 -1.0
v 1.0 1.0 -0.999999
v 0.999999 1.0 1.000001
v -1.0 1.0 1.0
v -1.0 1.0 -1.0
vn 0.5773 -0.5773 0.5773
vn -0.5773 -0.5773 -0.5773
vn 0.5773 -0.5773 -0.5773
vn -0.5773 0.5773 -0.5773
vn 0.5773 0.5773 0.5773
vn 0.5773 0.5773 -0.5773
vn -0.5773 -0.5773 0.5773
vn -0.5773 0.5773 0.5773
vt 2.0 0.0
vt 0.0 2.0
vt 0.0 0.0
vt 2.0 0.0
vt 0.0 2.0
vt 0.0 0.0
vt 2.0 0.0
vt 0.0 2.0
vt 0.0 0.0
vt 2.0 2.0
vt 2.0 0.0
vt 0.0 2.0
vt 2.0 2.0
vt 2.0 2.0
vt 2.0 2.0
vt 2.0 0.0
vt 2.0 2.0
vt 2.0 0.0
vt 0.0 2.0
vt 0.0 0.0
f 2/1/1 4/2/2 1/3/3
f 1/11/3 4/12/4 8/6/6
